<svg xmlns="http://www.w3.org/2000/svg" width="328.553" height="250" viewBox="0 0 328.553 250">
  <path id="buey" d="M120.751,248.474c16.911-1.459,13.636,4.555,14.857,20.514.387,4.764,2.471,8.783,0,13.845-2.412,4.972-18.489,9.766-17.894,13.726a5.931,5.931,0,0,0,4.734,2.233c-19.77,11.612-3.1,26.707,12.356,12.267,6.163-5.776,8.247-14.887,13.13-21.616,7.592-10.48,13.934-16.375,17.983-28.791,4.436-13.607,5.032-6.907,18.311-5.478,3.9.417,11.463-2.293,14.678-.566,2.412,1.28,6.252,17.6,7.979,21.645,4.228,9.825,8.1,18.043,6.848,29.238-.476,4.436-3.632,8.456-1.638,12.8.536,1.191,5.329-3.484,5.865-3.126,2.739,1.7-1.161,7.205,1.191,9.349,2.65,2.441,9.528,3.454,12.8,3.245,14.053-.893,3.245-5.091,5.9-7.92,1.608,1.548,6.014,6.58,8.6,3.871-.179.179-19.353-23.372-20.454-28.553-2.2-10.451,2.114-22.152,2.412-32.691.417-15.988,2.173-24.206,11.522-36.056,7.592-9.617,7.295-8.456,18.757-7.414,6.818.625,12.981-.625,19.859-.506,5.419.119,9.5,4.079,15.631,1.28,5.389-2.441,10.659-9.557,11.7-15.006,1.667-8.515-5.121-21.616-6.1-30.905-.625-5.865.506-13.517-1.578-19.353,14.8-3.871,9.676-11.314,1.37-18.251,26.2-13.279,13.517-38.378,29.178-56.361-7.265-6.252-22.36,32.572-25.665,35.609-6.193,5.657-24.385,8.188-31.173,2.322a2.962,2.962,0,0,0,.536-2.858,11.748,11.748,0,0,0-6.461,2.352c.6-1.459.387-2.233-.6-2.293q-1.072,2.814-3.841,1.965c.774-1.906.238-3.067-1.608-3.454.8,3.9-2.828,3.394-4.913,5a3.682,3.682,0,0,0-1.667-4.109c1.012,5.181-3.6,4.258-4.913,2.293-5.865,4.347.119,3.424-10.51,1.042-7.592-1.7-22,.387-28.166-2.8C198.341,109.044,197.716,91.15,180,91.15c4.645,8.724,23.343,18.132,11.552,27.63-4.287,3.454-11.7,1.965-16.614,2.65-8.069,1.131-15.84,3.692-23.581,6.133-17.507,5.538-33.168,9.081-51.627,9.319-16.078.179-31.649-2.829-47.31,1.459-25.456,7-54.039-3.037-52.134,36.026.625,12.713,3.632,25.784,5.6,38.319,1.042,6.639,2.68,13.487,2.739,20.276.06,7.414-4.347,16.584,1.042,23.134a27.362,27.362,0,0,0,1.131-2.531c1.28,6.223,3.811,26.677,10.748,29.119,3.275-23.908,5.032-44.6-3.186-68.36-5.151-14.887-27.332-59.339,1.7-62.7-13.428,16.554-2.59,39.033,6.818,56.064,3.9,7.086,15.75,18.489,15.631,27-.119,8.992-9.617,11.939-12.5,18.638-4.942,11.463-4.526,37.217-4.287,50.347.149,8.962,9.081,20.871,21.645,15.542a8.022,8.022,0,0,0-2.084-3.156,7.52,7.52,0,0,0,6.759,1.221c-6.967-11.939-15.155-12.326-13.4-28.077a55.428,55.428,0,0,1,16.346-33.019c1.429,5.865.179,10.9,2.2,16.7,2.561,7.294,8.188,15.542,12,22.241,3.394,5.955,11.7,32.781,16.673,26.886,1.816,4.585,18.341,11.195,20.157,4.049a7.539,7.539,0,0,0-3.513-3.99c.863-1.37,5.717,4.585,7.8,1.727,0,0-20.722-17-22.3-19-8.485-10.629-11.4-24.772-12.624-38.17-.387-4.139-2.352-20.693-.357-23.67,4.2-6.372,1.638-2.977,10.063-.566,11.165,3.216,23.789,7.652,35.669,6.074C123.966,248.206,111.67,249.665,120.751,248.474Z" transform="translate(-0.197 -79.215)" fill="#fff"/>
</svg>
