<svg xmlns="http://www.w3.org/2000/svg" width="281.205" height="250" viewBox="0 0 281.205 250"><path id="caballo" fill="#fff" d="M272.141,14.313l-9.129,12.17.9-13.471-9.582,12.609c-55.224-9.993-74.343,55.217-74.343,55.217-28.695,26.961-71.745,17.826-71.745,17.826-35.665-6.524-54.327,17.39-54.327,17.39C17.407,118.222,15.649,161.7,15.649,161.7,16.1,185.626,0,200.4,0,200.4c35.657.439,41.739-45.205,41.739-45.205,3.048-34.357,9.575-29.145,9.575-29.145C44.341,153,78.7,180.381,78.7,180.381c-1.319,4.352-7.414,5.656-7.414,5.656-16.508,9.129-6.954,12.61-6.954,12.61,5.642,9.15,13.927,7.407,13.927,7.407C77.4,216.486,88.7,224.312,88.7,224.312c6.514,15.65,20.413,27.388,20.413,27.388,2.6,0,3.913,3.047,3.913,3.047,0,8.266,10.878,8.266,10.878,8.266,7.414,0,8.258-2.182,8.258-2.182-1.3-10.872-17.386-13.907-17.386-13.907-6.521-4.776-1.751-6.1-1.751-6.1,10.008,2.6,3.913-11.305,3.913-11.305-.44-16.508-13.9-20-13.9-20-5.649-1.311-6.1-4.344-6.1-4.344,8.7-7.393,12.61-30.874,12.61-30.874,5.223.866,12.587-4.776,12.587-4.776,26.536,13.906,77.837-3.048,77.837-3.048,0,12.6,6.524,29.569,6.524,29.569-3.034,30.875.872,41.733.872,41.733,3.476,7.824,3.909,7.4,3.909,7.4-6.51,8.69,2.608,9.995,2.608,9.995h8.257c13.919-.879,5.22-7.825,5.22-7.825-13.464-8.689-11.737-19.987-11.737-19.987.428-6.961,2.186-39.139,2.186-39.139.868-13.906,5.638-18.279,5.638-18.279,4.792,6.528,33.036,9.563,33.036,9.563,9.132,16.081-12.163,31.3-12.163,31.3-3.92-6.961-10.015,1.3-10.015,1.3-6.068,12.616-2.155,13.04-2.155,13.04,5.217.433,13.9-7.384,13.9-7.384,16.521-3.473,25.235-33.057,25.235-33.057,5.221-16.089-20.016-19.987-20.016-19.987-20.873-7.824-13.042-14.361-13.042-14.361,11.742-16.951,2.176-26.961,2.176-26.961-4.792-5.217-4.342-15.217-4.342-15.217,8.7-18.7,8.261-41.733,8.261-41.733,2.591,9.565,14.349,16.954,14.349,16.954s-2.6-16.518,0,1.74,17.393,8.685,17.393,8.685c10.43-6.5,1.747-22.595,1.747-22.595.45-17.833-8.7-38.255-8.7-38.255Z" transform="translate(0 -13.012)"/></svg>