<svg xmlns="http://www.w3.org/2000/svg" width="209.921" height="247.556" viewBox="0 0 209.921 247.556"><g id="cabra-2" transform="translate(-2.429 -0.001)"><path id="Trazado_3" fill="#fff" d="M206.939,212.062s3.906-14.128,2.379-19.211c-1.224-4.061-12.2-28.844-18.708-44.723-1.968-5.456-3.449-10.237-3.5-12.733-.155-7.889,10.175-27.968,7.881-41.383-2.325-13.4-26.349-30.975-23.109-33.742s33.463-1.418,35.827-4.627c2.379-3.208,6.479-6.944,3.712-11.787s-29.6-17.584-31-18.963-3.464-25.419-19.645-23.1c5.076,32.13-1.147,43.917-28.666,54.085C128.187,59.82,129.3,74.7,131.07,81.349c6.471,35.633-44.638,19.862-60.788,20.1-16.538-.938-25.256-2.875-40.368,7.114-11.136,7.339-19.452,2.34-25.264-2.5-10.175,15.98,18,15.182,16.468,19.607-4.534,8.819-1.86,26.054-.488,28.829,1.7,3.394,2.3,8.571,1.775,10.292-2.077,6.7-18.483,22.768-18.483,31.138s1.186,28.782,1.186,28.782S3.86,236.535,6.355,236.535s16.026-.465,19.258-.465-1.62-10.726-8.253-11.407c0-2.55,1.519-27.682,1.519-27.682l19.506-23.443s2.247,23,5.355,27.573S57.7,226.383,57.7,226.383s-.682,8.68,1.364,8.68,13.306-.294,17.39-.294-.914-11.214-7.215-10.54c-2.387-3.743-7.75-24.473-9.338-29.046s-2.015-20.506-1.8-27.333c.2-6.843,7.06,5.053,39.236,4.844,32.161-.209,42.623-4.844,42.623-4.844s7.006,53.837,7.494,57.735c.651,4.247-.7,8.842,1.5,8.842s15.244.093,19.01.093.728-12.43-8.067-12.415c-1.713-4.138-3.069-29.666-3.069-29.666l14.042-25.783s21.7,22.055,24.76,27.844,1.62,21.358,1.62,21.358a26.7,26.7,0,0,0-3.728,5.619c2.1,3.379,7.4,7.416,12.066,12.1,6.13-1.372,6.579-9.393,5.115-13.965A26.29,26.29,0,0,0,206.939,212.062Z" data-name="Trazado 3" transform="translate(0 11.022)"/><path id="Trazado_4" fill="#fff" d="M50.413,51.615c17.483-9.424,5.13-29.394,1.441-27.085C53.862,32.4,52.762,44.873,41.23,44.1c-11.562-.783-11.95-23.807,7.308-28.9,19.25-5.076,35.207,31.983-3.154,44.46,25.117,1.852,38.229-9.71,35.61-40.073S15.021-4.609,13.951,29.606C12.851,63.821,43.175,54.854,50.413,51.615Z" data-name="Trazado 4" transform="translate(77.572 0)"/></g></svg>