<svg xmlns="http://www.w3.org/2000/svg" width="299.544" height="158.902" viewBox="0 0 299.544 158.902"><path id="jabali" fill="#fff" d="M285.067,137.492c-11.308-7.01-6.063-39.866-34.54-47.958C240.5,54.185,234.377,87.3,234.377,87.3c-26.4-14.52-47-13.842-70.632-3.493-14.182,6.2-58.487-1.315-73.338.432-14.807,1.015-27.434,6.75-37.9,14.81a30.639,30.639,0,0,0-4.5,4.5c-4.343,1.9-15.945,7.533-23.064,16.331-10.377-.6-26.536,9.865-24.821,11.606s9.142-7.434,21.732-8.062A9.709,9.709,0,0,0,20.3,131.7c.672,1.827,4.739,7.94,11.981,4.2,7.16-3.683,5.372-9.685,5.064-10.33s-2.219-4.382-5.8-5.2c5.331-3.811,7.73-5.561,10.934-6.584-8.047,24.3,9.048,58.954,26.114,59.184C50.26,186.735,87.255,231.73,87.255,231.73a145.854,145.854,0,0,0,21.05,0C72.09,197.7,92.159,184.225,98.711,177.455c24.435,12.454,47.456,5.837,54.405,5.837s8.319,3.051,6.583,6.548c-13.084,29.671,1.41,41.89,1.41,41.89s12.216-.429,18.772,0c-14.4-15.71-8.3-25.728-8.3-25.728,11.789-27.5,47.8-46.82,53.693-47.991,17.467-6.987,45.733-.012,50.637,0,11.164.033,24.871-17.469,23.548-20.522C298.162,134.438,291.606,139.243,285.067,137.492ZM33.3,126.307c1.258,1.47.3,3.793-2.784,5.54s-5.492.372-5.89-2.139c-.381-2.415,2.436-5.8,2.436-5.8S31.811,124.57,33.3,126.307Z" transform="translate(0 -73.221)"/></svg>