<svg xmlns="http://www.w3.org/2000/svg" width="166.365" height="250" viewBox="0 0 166.365 250"><path id="gato" fill="#fff" d="M205.925,238.3c-1.21-10.072-12.34-11.214-18.812-10.521-6.89-25.942,17.142-64.609,18.556-73.768,1.519-9.839-7.034-67.09-7.938-96.08C196.8,28.17,153.581-4.684,146.365.554c-7.151,7.907,10.3,18.579,1.114,27.729-8.873,8.84-11.187,14.781-17.775,24.786C112.824,78.7,158.566,79.016,158.566,79.016s-35.8,26.532-43.763,39.9c-7.336,12.315-10.411,26.092-19.263,37.706C75.366,183.092,79.912,229.24,79.912,229.24S41.7,216.732,62.729,173.1c16.01-33.21,23.9-82.219-12.123-69.615-13.935,4.877,3.116,15.135,6.058,18.421,9.845,10.988,1.522,29.473-4.41,40.161-15.887,28.623-21.655,58.612,11.785,77.1,14.858,8.216,34.924,10.248,55.12,10.546l51.39.148C187.479,250.711,206.629,247.546,205.925,238.3Z" transform="translate(-39.579 0)"/></svg>