<svg xmlns="http://www.w3.org/2000/svg" width="278.19" height="311.741" viewBox="0 0 278.19 311.741">
  <g id="dragon" transform="translate(-2.278 0)">
    <path id="Trazado_1" data-name="Trazado 1" d="M213.752,163.886c2.488.817.847-4.012-3.666-10.786l-2.731-4.116c-4.506-6.766-6.413-12.059-4.263-11.824s-.066-2.871-4.955-6.943-7.333-7.686-5.47-8.069S190,118.807,182.6,115.435c-14.143-6.442-27.682-13.561-36.686-25.569-2.577-3.784-3.35-7.046-2.849-9.947,1-5.772,6.56-7.576,7.517-6.28l1.745,2.341c3.453,5.463,9.321,9.652,21.689,10.425,8.062.707,13.046,5.308,17.706,10.4a16.872,16.872,0,0,0,6.869,4.344c4.366,1.244,6.523-2.047,4.837-3.048s-7.8-3.416-5.971-7.024,6.2-8.312,6.53-11.794-4.947-6.5-7.245-8.327l-4.167-3.3a11.518,11.518,0,0,0-4.344-1.715c-2.562-.449-5.868-2.334-8.6-3.622s-9.048-1.612-8.695-4.005c.11-.766,1.59-1.531,3.585-2.3A17.848,17.848,0,0,1,188.933,57.4c3.968,2.555,9.475,3.357,15.24,4.263,8.04,1.259,16.087,2.93,17.662,1.3s2.142-8.511,2.142-14.739-6.582-9.387-14.636-10.484c-16.757-2.275-20.511-17.162-28.087-27.484C176.44,3.712,171.212,6.612,167.273,7.9c-1.62.53-3.968-.258-6.95-2.194-2.142-1.642-4.27-3.247-6.4-4.594-3.674-2.326-1.428,4.675-7.024,6.28S135.395.178,131.559.008s-1.686,2.223.8,6.31c1.708,2.805.758,5.816-3.814,4.609a27.054,27.054,0,0,0-12.008.324c-6.457,1.738-8.1,5.941-5.08,6.184s9.659.751,11.684,4.454c1.266,2.312.191,4.565-4.123,3.777a10.782,10.782,0,0,0-6.759,1.193c-3.342,1.929-.537,2.076,3.011,4.594,1.428,1.016.92,3.365-2.084,6.8-37.541,42.856,22.786,76.134,39.6,118.364,3.011,7.554.42,8.5-4.108,1.745C106.188,94.982,59.01,84.248,8.093,115.67c-6.921,4.27-5.669,7.259,2.422,6.391,7.178-.773,14.364-1.045,21.55.427,8.018,2.378,15.078,5.065,9.247,8.614-14.136,8.327-30.348,16.565-36.62,25.275-4.756,6.6-2,5.765,4.049.324,5.6-5.036,15.66-8.209,27.756-10.543,7.988-1.539,17.522-3.961,21.527-4.2,3.151-.184,3.924,1.48,2.474,4.874-2.01,4.476-3.8,8.96-5.426,13.444-2.739,7.524.221,9.225,6.921,4.609,79.211-54.525,123.12,89.5,52.287,53.509-7.252-3.681-9.711-1.509-4.336,4.587,29.81,33.881,77.312-.088,68.293-62.293-1.171-8.047.412-8.717,3.32-1.119,9.939,25.893,6.368,52-6.663,73.483-7.156,14.32-49.659,38.586-17.11,74.912,5.426,6.059,7.141,4.55,3.225-2.584-8.437-15.373-11.566-28.728,8.945-43.114,15.284-9.07,31.246-29.03,37.533-60.651,1.6-7.966,5.735-8.886,7.561-.964a108.267,108.267,0,0,1,2.172,16.308c.589,8.121,1.686,8.121,1.8-.015a140.957,140.957,0,0,0-4.977-40.64C211.845,168.488,211.271,163.069,213.752,163.886ZM167.877,18.907a6.133,6.133,0,1,1-6.133,6.133A6.133,6.133,0,0,1,167.877,18.907Z" transform="translate(0 0)" fill="#fff"/>
    <path id="Trazado_2" data-name="Trazado 2" d="M99.786,47.361a30.612,30.612,0,0,1-5.1-1.634c-7.48-3.2-2.893-10.315-8.069-16.595-.4-.486-.788-.979-1.178-1.48-4.977-6.42-11.088-2.783-17.544-7.723a30.982,30.982,0,0,1-2.879-2.54c-5.794-5.7-14.15-5.095-22.212-6.155-2.047-.272-4.241-.692-6.508-1.178-7.951-1.708-9.034.707-2.142,5.028,5.838,3.666,11.743,7.333,15.763,10.859C56.024,31.311,56.429,40.212,60.353,38s10.189-2.371,15.24,4c6.236,7.856,13.716,16.5,26.055,12.84C109.453,52.515,107.73,49.187,99.786,47.361Z" transform="translate(173.77 60.468)" fill="#fff"/>
  </g>
</svg>
