<svg xmlns="http://www.w3.org/2000/svg" width="250" height="247.008" viewBox="0 0 250 247.008">
  <path id="gallo" d="M234.808,50.444c3.317-2.133,7.053-4.563,11.509-4.563a12.228,12.228,0,0,1,3.683.57c-.8-3.881-4.121-6.787-7.35-9.615-2.762-2.422-5.375-4.7-6.536-7.581l-.122-.312h0s10.744-11.309,4.99-21.032-8.215-4.656-9.038,0-9.8-8.03-11.227-.41-16.3,1.883-12.461,10.87a12,12,0,0,0,3.332,4.235c-14.026,2.165-21.857,8.328-29.559,20.768-2.148,3.47-5.415,11.5-7.716,17.386-10.961,27.977-19.481,31.23-34.22,31.23-6.805,0-13.62-1.864-20.269-4.77-3.1-1.8-26.976-16.028-33.212-31.468-6.668-16.523-36.219-47.669-66.724-34s-24.66,23.975,8.895,33.368c31.776,8.9-30.821,9.851-8.259,30.19s-1.912,19.7,28.6,43.537c28.215,22.04,17.144,33.02,31.363,42.679-.011.018-.025.038-.036.061.27.175.589.312.87.488.944.6,1.981,1.2,3.144,1.783,0,0,.074.008.089.008a91.417,91.417,0,0,0,13.353,4.631c5.035,1.47,15.328,4.392,15.328,4.392,13.158,1.421,32.534-14.134,40.117-25.49,11.72-18.3,3.093-33-3.264-52.567l2.932-.931c6.052,18.9,15.665,35.267,2.906,55.182-7.445,11.178-24.862,25.487-38.866,26.858.459.282,6.155,3.942,11.149,6.658a19.342,19.342,0,0,1,9.508,12.256,64.664,64.664,0,0,0,4.433,12.446,7.908,7.908,0,0,1-5.042,11.075c-4.026,1.09-8.241,2.617-11.5,5.455a4.086,4.086,0,0,0,.729,6.657,4.987,4.987,0,0,0,5.484-.472c4.1-3.261,11.657-3.565,18.117-6.056a7.612,7.612,0,0,1,6.947.773,24.476,24.476,0,0,0,2.372,1.405,23.455,23.455,0,0,1,8.379,7.267,18.16,18.16,0,0,1,1.52,2.475,6.018,6.018,0,0,0,5.02,3.332l2.753.16a1.633,1.633,0,0,0,1.288-.5,1.653,1.653,0,0,0,.441-1.31,15.59,15.59,0,0,0-1.326-4.68,1.755,1.755,0,0,1,1.611-2.468c10.23.019,17.162,2.522,20.741,4.258a5.711,5.711,0,0,0,5.843-.507l.677-.5a3.33,3.33,0,0,0-.133-5.484c-9.476-6.178-25.563-6.653-33.443-8.718-12.77-3.4-19.145-19-18.353-29.155a.02.02,0,0,0,.018.008l0-.058,1.554-.088c10.294-.564,16.7-9.845,22.615-19.009,10.435-16.167,15.41-16.353,15.41-16.353,27.105-2.772,42.323-25.285,46.5-68.8,1.237-12.842-2.559-20.47-6.585-28.554A94.535,94.535,0,0,1,228.471,55.3l-.507-1.514,1.523-.461A22.868,22.868,0,0,0,234.808,50.444ZM219.059,37.925a3.793,3.793,0,1,1,3.786-3.795A3.795,3.795,0,0,1,219.059,37.925Z" transform="translate(0 -2.361)" fill="#fff"/>
</svg>
