<svg xmlns="http://www.w3.org/2000/svg" width="250" height="207.945" viewBox="0 0 250 207.945">
  <path id="mono" d="M246.769,76.648c-.759-.39-1.571-.675-2.339-1.05q-7.652-3.757-15.291-7.537c-.04-.021-.054-.095-.118-.213.611-.476,1.232-.966,1.859-1.446a1.267,1.267,0,0,0,.52-1.542,20.863,20.863,0,0,1-1.056-2.38c-.451-1.811-2.039-2.456-3.329-3.325a43.739,43.739,0,0,0-4.237-2.146,23.559,23.559,0,0,1-2.515-1.512c-1.811-1.257-3.545-2.635-5.392-3.834a17,17,0,0,0-8.821-2.468c-.973-.039-1.939-.233-2.908-.356h-2.593a3.275,3.275,0,0,1-.426.156c-2.527.569-5.092,1.008-7.576,1.727a16.122,16.122,0,0,0-9.337,6.318,10.973,10.973,0,0,0-1,2.326,11.7,11.7,0,0,1-.6,1.909,42.58,42.58,0,0,1-2.516,3.736c-1.907,2.543-4.931,4.014-6.6,6.8a35.84,35.84,0,0,1-8.991,5.146A37.1,37.1,0,0,1,153.3,78.714a4.429,4.429,0,0,0-2.531.792,3.722,3.722,0,0,1-1.723,1.01c-1.92.369-3.855.673-5.756,1.124-.992.235-1.9.827-2.889,1.078-2.658.672-5.333,1.282-8.013,1.851-2.3.489-4.623.87-6.929,1.335-1.851.374-3.694.8-5.538,1.212-1.247.276-2.522.466-3.731.857-3.912,1.267-7.834,2.412-12.007,2.36a15.109,15.109,0,0,0-3.028.278,45.462,45.462,0,0,0-5.659,1.423,27.439,27.439,0,0,1-6.689,1.038c-3.594.242-7.2.285-10.8.378a4.464,4.464,0,0,1-1.33-.3,9.526,9.526,0,0,1-4.463-3.258,21.6,21.6,0,0,0-2.837-3,14.79,14.79,0,0,0-3.149-1.683,83.981,83.981,0,0,0-12.943-5.045,27.635,27.635,0,0,0-8.709-1.152,2.9,2.9,0,0,1-.627-.123l.5-.4a44.289,44.289,0,0,0-5.8.044,18.576,18.576,0,0,0-9.992,4.221,17.694,17.694,0,0,0-3.8,3.81A89.61,89.61,0,0,0,19.3,97.233c-1.843,4.315-3.36,8.782-4.813,13.249a50.855,50.855,0,0,0-1.165,6.209c-.276,1.439-.63,2.863-.915,4.3a65.3,65.3,0,0,1-3.174,12.026,13.944,13.944,0,0,0-.875,3.827,37.165,37.165,0,0,1-1.5,8.291c-1.235,3.659-2.524,7.3-6.483,9.01a2.486,2.486,0,0,0-.378.246v.926c.123.255.379.529.346.759-.125.829.307,1.13,1,1.377a4.633,4.633,0,0,0,4.932-1.112,26.248,26.248,0,0,0,8.332-12.763c1.945-7.187,3.954-14.371,5.5-21.648,1.219-5.717,2.914-11.278,4.523-16.874.3-1.026.654-2.034.931-3.065,1.131-4.214,2.729-8.118,6.331-10.939a8.432,8.432,0,0,1,4.774-1.862,14.8,14.8,0,0,1,7.95,1.839c2.931,1.488,5.081,3.817,7.223,6.2,1.18,1.312,2.4,2.64,4.291,2.64-.176.374-.386.8-.576,1.23a5.8,5.8,0,0,1-.558,1.31c-.652.817-1.382,1.574-2.109,2.329a24.17,24.17,0,0,0-4.535,6.357,24.586,24.586,0,0,0-2.227,9.966,38.35,38.35,0,0,1-.768,8.332,39.249,39.249,0,0,0-1.066,4.323c-.262,2.006-.221,4.048-.421,6.063-.226,2.287-.569,4.563-.877,6.842a37.132,37.132,0,0,0-.562,3.992c-.082,3.3-.081,6.6-.014,9.9a64,64,0,0,0,1.812,14.946c1.038,3.982,2.18,7.842,5.276,10.8.423.4.608.932-.291,1.11a1.781,1.781,0,0,0-.59.374,20.368,20.368,0,0,1-3.782,2.64,3.1,3.1,0,0,0-1.681,1.853c-.81,1.646-1.507,3.351-2.4,4.949-1.3,2.329-2.763,4.564-4.089,6.877-1.916,3.341-4.07,6.5-7.361,8.612A70.2,70.2,0,0,0,22.66,217.6c-3.515,2.887-3.708,6.717-1.354,10.219.675,1,1.76,1.762,1.885,3.106.007.07.118.132.18.2.492.514,1,1.015,1.47,1.544a53.726,53.726,0,0,1,4.223,4.851,50.038,50.038,0,0,1,3.515,6.2c1,1.992,1.641,4.122,4.456,4.375,2.255.2,3.622-.321,4.507-2.34.047-.107.093-.214.1-.241-.367-.625-1.519-.362-1.417-1.549,1.551.115,3.038.128,4.493.356a22.2,22.2,0,0,1,4.7,1.11,8.9,8.9,0,0,0,4.14.6c.827-.074,1.932.244,2.283-1.047.034-.123.6-.176.9-.127a1.647,1.647,0,0,1,.694.441c1.3,1.131,2.74.882,4.158.344a1.482,1.482,0,0,0,.78-.923,6.238,6.238,0,0,0-2.477-5.749c-.859-.513-1.735-1-2.63-1.449-1.18-.592-2.385-1.133-3.581-1.7-.387-.183-.782-.348-1.161-.545-.92-.477-1.835-.968-2.75-1.458-1.83-.983-3.955-.982-5.858-1.916a19.408,19.408,0,0,1-4.834-3.574,1.28,1.28,0,0,1-.1-1.939,22.661,22.661,0,0,1,1.6-2.25,33.184,33.184,0,0,1,3.367-2.954c.711-.55,1.626-.829,2.359-1.358,2.141-1.549,4.282-3.105,6.339-4.762,2.945-2.371,6.158-4.424,8.694-7.29,1.574-1.778,3.144-3.565,4.82-5.243,3.336-3.337,6.738-6.608,10.129-9.889.813-.787,1.228-.761,1.964.109.411.486.666,1.1,1.068,1.6a10.642,10.642,0,0,0,5.935,3.746c.283.068.722.22.771.413.4,1.588.734,3.2,1.077,4.8.016.076-.049.176-.091.257a9.564,9.564,0,0,0-.906,5.377c.169,1.89.429,3.769.659,5.654q.145,1.183.328,2.362c.346,2.264.729,4.523,1.043,6.792.172,1.247.156,2.522.367,3.76a16.917,16.917,0,0,1,.062,6.4c-.5,2.368-.446,4.827-1.679,7.063a16.293,16.293,0,0,0-1.207,4.007,1.332,1.332,0,0,0,.251,1.121,14.511,14.511,0,0,0,2.4,1.653c2.657,1.444,5.39,2.752,8.009,4.259a17.926,17.926,0,0,0,7.548,2.35c1.28.107,2.58-.047,3.869-.012,5.673.156,11.343.372,17.018.487a16.033,16.033,0,0,0,3.727-.46c.768-.169,1.806-.12,2.016-1.286.018-.095.369-.188.561-.179a12.611,12.611,0,0,0,2.118.149c2.49-.316,4.971-.709,7.447-1.124.166-.028.4-.488.366-.711a2.985,2.985,0,0,0-2.031-2.4c-1.39-.558-2.777-1.117-4.174-1.657a35.956,35.956,0,0,0-7.907-2.258,52.825,52.825,0,0,1-6.216-1.119,43.213,43.213,0,0,0-10.233-1.077,7.971,7.971,0,0,1-4.705-1.335,2.757,2.757,0,0,1-.954-1.372c-.448-1.588.146-3.095.65-4.56.578-1.672,1.459-3.248,1.936-4.944,1.089-3.878,1.951-7.818,3.019-11.7a25.851,25.851,0,0,0,1.078-8.264c-.1-1.846-.214-3.692-.369-5.535-.262-3.114,1.068-5.937,1.66-8.886a38.44,38.44,0,0,1,1.927-5.132,4.457,4.457,0,0,0,.235-3.232,18.016,18.016,0,0,1-1.059-6.12,39.82,39.82,0,0,0-.576-5.86,10.833,10.833,0,0,0-2.8-5.691,5.672,5.672,0,0,1-1.806-3.615c-.012-.149-.019-.409-.083-.427-.873-.246-.8-1.054-1.015-1.677-.873-2.531-1.818-5.043-2.57-7.611-.632-2.161-.761-4.5-1.6-6.562-.023-.056-.044-.112-.067-.167,1.577.125,3.153.112,4.732.251a23.921,23.921,0,0,1,4.2,1.159,23.79,23.79,0,0,1,4.1,2.473c-.075-.058-.151-.118-.228-.176a9.69,9.69,0,0,0,1.142.725,47.716,47.716,0,0,0,6.494,4.3,18,18,0,0,0,5.773,1.672,7.777,7.777,0,0,1,4.845,2.115,3.1,3.1,0,0,0,1.7.7c1,.144,2.034.044,3.037.179a34.048,34.048,0,0,0,4.681.75,13.6,13.6,0,0,1,4.17.709,3.512,3.512,0,0,0,1.194.037c1.839-.109,3.677-.3,5.516-.33a5.327,5.327,0,0,1,3.3,1.026c-.15,1.114-.314,2.039-.393,2.972-.156,1.836-.164,3.69-.425,5.508-.2,1.41-.741,2.768-1.063,4.165-.4,1.725-.748,3.462-1.085,5.2-.46,2.368-.954,4.732-1.3,7.117a4.883,4.883,0,0,1-.636,2.522,2.69,2.69,0,0,0-.318,1.219c-.192,1.4-.342,2.8-.53,4.2a51.048,51.048,0,0,0-.736,5.553,45.577,45.577,0,0,1-2.792,13.326c-.777,2.345-2.061,4.528-2.75,6.891-1.049,3.6-1.672,7.321-2.687,10.933-.5,1.783.049,3.432.065,5.141a1.668,1.668,0,0,0,.387.81,4.856,4.856,0,0,0,4.171,2.1c2.953.055,5.895.258,8.839.527,2.018.185,4.057.16,6.088.181a3.652,3.652,0,0,0,1.527-.281,4.3,4.3,0,0,1,4.038.241c1.116.586,2.616-.047,2.682-.91-.506-.372-.936-.691-1.444-1.066.708-.213,1.171-.351,1.635-.492-.26-.569-.5-1.149-.79-1.7-.109-.209-.343-.351-.5-.539-1.431-1.681-3.439-2.4-5.4-3.162a6.6,6.6,0,0,0-3.105-.481,12.358,12.358,0,0,1-3.589-.517,8.021,8.021,0,0,1-2.068-.718,1.928,1.928,0,0,1-1.008-2.769c.637-1.641,1.252-3.3,2.013-4.883,1.731-3.612,3.618-7.149,5.3-10.781,2.036-4.385,3.958-8.821,5.861-13.265a25.771,25.771,0,0,0,1.127-3.76c.323-1.268.434-2.6.852-3.831,1.565-4.6,3.265-9.146,4.818-13.746.679-2.017,1.127-4.11,1.681-6.169l.278-.044a6.218,6.218,0,0,1,.806,1.476,19.807,19.807,0,0,1,.4,2.882c.152,1.778.209,3.564.4,5.337a5.7,5.7,0,0,0,.631,2.243,13.978,13.978,0,0,1,2.078,4.642c.135.781.355,1.547.52,2.323a45.636,45.636,0,0,1,1.129,5.635,9.127,9.127,0,0,0,1.331,4.04,3.031,3.031,0,0,1,.39,1.119c.39,2.94.747,5.886,1.129,8.828a7.421,7.421,0,0,0,.267.955c.65,2.377,1.436,4.727,1.905,7.136.4,2.064.437,4.2,1.263,6.181a7.083,7.083,0,0,1,.332,3.794c-.176,1.277-.448,2.571.636,3.74a5.514,5.514,0,0,1,1.17,2.412c.793,3.293,1.458,6.615,2.208,9.919.343,1.514.737,3.017,1.168,4.509a1.428,1.428,0,0,0,1.346,1.04c3.184.427,6.368.88,9.528,1.451a5.4,5.4,0,0,1,3.873,2.007h.926c1.014-.185,2.024-.381,3.039-.553a18.3,18.3,0,0,0,3.59-.636,3.182,3.182,0,0,1,2.157-.228c.877.242,1.224-.031.993-.887a5.026,5.026,0,0,0-.9-1.4c-.082-.118-.31-.189-.316-.294-.065-1.044-.979-1.345-1.616-1.876-.658-.55-1.434-.978-2.027-1.586-2.415-2.473-5.475-3.763-8.67-4.773a4.916,4.916,0,0,1-3.276-3.832c-.235-4.709-.634-9.424-.6-14.133.053-7.677.39-15.353.621-23.028.045-1.447.139-2.893.239-4.339.209-3.007.54-6.009.624-9.019.058-2.085-.23-4.178-.331-6.27-.119-2.494-.226-4.988-.3-7.484-.1-3.446-.369-6.92.466-10.3.985-4,2.143-7.948,3.247-11.914a39.764,39.764,0,0,0,1.621-6.469c.313-2.947.866-5.87,1.371-8.795.415-2.406.983-4.786,1.35-7.2.378-2.484.632-4.987.868-7.488.156-1.667.22-3.346.258-5.022.044-1.958-.167-3.94.065-5.874a4.749,4.749,0,0,1,4.107-3.819c1.5,0,1.734-.237,1.778-1.8l-.957-.364,2.9-.9c-.023-.063-.045-.128-.067-.191l-1.6-.248c.008-.088.016-.176.024-.263h2.274a13.32,13.32,0,0,1,.018-1.509c.026-.225.2-.571.365-.616.884-.241,1.79-.393,2.684-.6.221-.051.555-.128.616-.279.288-.734.88-.662,1.465-.638a3.412,3.412,0,0,0,2.676-.968c-.837-.077-1.426-.13-2.143-.2.562-.36,1.028-.638,1.47-.947,3.5-2.441,7.328-3.522,11.488-2.306a7.243,7.243,0,0,0,6.274-1.149,4.917,4.917,0,0,0,.918-.608c1.432-1.456,2.568-3.276,1.558-5.329a1.409,1.409,0,0,1,.082-1.447,5.809,5.809,0,0,0,.458-5.039,2,2,0,0,1,.034-1.3A11.266,11.266,0,0,1,250,81.236v-.926A5.882,5.882,0,0,0,246.769,76.648ZM96.61,134.24c-.009-.049-.019-.1-.03-.149.074-.009.144-.012.218-.021C96.735,134.126,96.671,134.182,96.61,134.24Z" transform="translate(0 -48.838)" fill="#fff"/>
</svg>
