<svg xmlns="http://www.w3.org/2000/svg" width="250" height="229.395" viewBox="0 0 250 229.395">
  <path id="perro" d="M247.658,71.3,229.691,60.7,214.856,45.916l-7.17-25.9L202.253,18.5l-48,55.208L134.011,86.768l-19.967,2.823-84.919-.08-9.991-7.239L11.423,52.949,2.781,49.495,0,54.905,1.877,73.85l10.558,28.586.061.447L2.707,130.811l6.486,34.55L8.121,188.1,4.654,200.3l-.215,32.812,6.48,14.764,16.274.013,5.7-5.363-9.05-9.766-2.646-16.412,7.468-23.194,2.218-3.414.848.506.408,21.345,8.091,24.98,5.955,8.86,17.657.06,2.953-5.723L55.559,227.7l-1.171-28.007,11.05-30.5,7.694-12.615L84.11,155.1l60.332,11.273,2.522,9.351-5.795,56.47,7.985,13.329h13.513l7.35-5.417-1.646-7.876-9.051-4.6,9.812-49.079,4.043,57.242,11.772,12.092,12.185-.009,4.422-7.185-7.967-6.348-4.058-7.91,7.908-128.066,8.986-6.083L213.287,92,229.952,97.2,250,88.447Z" transform="translate(0 -18.496)" fill="#fff"/>
</svg>
