<svg xmlns="http://www.w3.org/2000/svg" width="264.723" height="154.593" viewBox="0 0 264.723 154.593">
  <path id="rata" d="M220.2,71.427c-.589-7.654-9.135-15.619-17.979-16.209s-17.4.3-12.087,6.483,7.074,12.091,4.423,11.212c-2.66-.9-13.267-7.08-45.1-2.066-4.126,1.17-21.221-12.682-44.513-12.977s-40.381,6.346-64.85,72.3c-2.356,5.828-18.866,19.386-27.71,25.865C3.536,162.529.007,169.787,0,182.763c-.018,18.158,25.934,27.187,81.648,26.889s85.195-9.388,85.195-9.388c-62.789,6.773-158.907,10.52-158.907-18.687,0-20.641,28.321-28.47,36.281-28.184s13.562,12.673,33.307,5.6c3.247-.295,1.48,4.423-1.18,7.369s-.586,6.487,9.73,6.487,41.183.295,47.707,0,11.839-11.792-9.384-12.68c-18.548.311,12.023-5.773,15.915-21.813.709-3.927,8.84-4.139,15.918-4.119,20.777.029,34.485,38.193,38.912,38.338s17.979,1.621,17.683-4.273-11.491-3.241-13.854-6.487-10.023-15.5-7.366-21.1,12.674-21.229,24.463-22.988c11.789-1.777,42.451,7.361,47.459,0s-6.783-11.512-15.918-28.611C243.779,80.572,238.768,71.728,220.2,71.427Z" transform="translate(0 -55.066)" fill="#fff"/>
</svg>
