<svg xmlns="http://www.w3.org/2000/svg" width="207.88" height="250" viewBox="0 0 207.88 250">
  <path id="serpiente" d="M78.245,146.364c5.638,8.464,11.483,16.788,17.232,25.177.2.3.382.62.788,1.284-13.981-1.366-22.774,4.072-24.941,18.44-4.743-1.57-8.607-4.437-12.512-7.222a39.669,39.669,0,0,0-4.577-3.284c-1.057-.543-3.021-.971-3.595-.422a4.7,4.7,0,0,0-1.263,3.915,22.062,22.062,0,0,0,3.469,7.257,110.737,110.737,0,0,0,9.038,9.733c1.017,1.017,1.487,1.67.918,3.209-4.355,11.791,1.249,27.953,17.294,31.4,5.85,1.257,11.933,1.476,17.925,1.977a7.609,7.609,0,0,1,4.487,1.626c8.627,6.928,18.38,10.753,29.582,10.543,10.342-.2,19.161-4.281,27.012-10.66a9.456,9.456,0,0,1,6.564-2.176c20.728.2,41.461.458,62.187.261a50.911,50.911,0,0,0,15.239-2.754c7.883-2.611,11.69-8.813,11.779-16.982.09-8.249-3.575-14.53-11.179-18.119-6.925-3.268-14.436-3.509-21.9-3.778-3.981-.144-7.968-.026-12.244-.026a24.951,24.951,0,0,0-1.671-14.332c-3.217-7.4-9.477-10.188-17.031-10.581-8.612-.448-16.3,2.432-23.359,7.146a4.217,4.217,0,0,1-4.168.417c-12.317-4.083-21.6-12.359-29.324-22.23-13.592-17.364-22.149-37.17-26.415-58.809-1.163-5.9.151-11.525,1.971-17.093,3.114-9.524,7.575-18.253,15.261-24.937a50.549,50.549,0,0,1,7.6-5.271c4.717-2.771,7.431-6.511,6.789-12.2a5.856,5.856,0,0,1,.134-1.115c1.955.494,3.811,1.04,5.7,1.424,4.436.9,8.881,1.768,13.424.578a1.721,1.721,0,0,1,1.4.316,46.251,46.251,0,0,1,4.869,5.027c.709.924.79,2.364,1.053,3.591.481,2.245.887,4.505,1.324,6.76l.686-.066c.216-2.664.43-5.33.632-7.832h8.3c.051-.188.1-.379.15-.567a23.679,23.679,0,0,1-15.19-9.8c2.507-2.655,1.966-5.31.7-8a9.946,9.946,0,0,0-2.516-4.725c-2.013-3.727-3.983-7.475-5.941-11.231-1.788-3.432-4.22-5.817-8.406-5.729a3.957,3.957,0,0,1-1.695-.541c-19.336-9.632-37.579-7.346-54.793,5.157a62.576,62.576,0,0,0-7.9,7.087,55.872,55.872,0,0,1-11.443,9.439C56.2,35.631,49.763,48.021,47.646,63.162,45.322,79.783,49.41,95.12,56.37,110,62.4,122.891,70.4,134.58,78.245,146.364Z" transform="translate(-46.991 0)" fill="#fff"/>
</svg>
