<svg xmlns="http://www.w3.org/2000/svg" width="374.145" height="200" viewBox="0 0 374.145 200">
  <path id="tigre" d="M216.143,363.886c-12.106,5.016-18.039,13.939-19.437,26.141-.675,5.981.916,8.055,6.27,10.756a25.018,25.018,0,0,1,8.2,6.463c2.267,2.8.531,4.2-2.363,6.174-5.884,4.148-11.768,1.5-17.7,1.158a4.037,4.037,0,0,1-2.749-1.061c-3.907-4.775-8.971-8.923-8.923-15.916.1-7.379.1-14.759.193-22.138a14.334,14.334,0,0,1,4.582-10.514c7.669-7.138,11-16.3,12.058-26.286,1.109-10.852.868-21.656-2.99-32.219-1.64-4.485-2.074-9.357-3.666-14.325-1.736,6.463-3.762,12.83-5.209,19.341-2.46,11.383-4.148,22.91-6.994,34.2-2.508,9.984-7.09,19.051-15.1,26.093-13.167,11.576-38.537,7.765-43.408-11.286a14.554,14.554,0,0,1-.145-6.608c.241-1.109,1.977-2.17,3.28-2.6.434-.145,2.074,1.592,2.267,2.6,1.35,8.151,6.077,12.781,14.18,13.842,6.849.868,12.4-1.833,16.206-7.428,6.511-9.55,9.164-20.5,10.852-31.833,2.315-15.82,4.437-31.736,7.862-47.363,3.907-17.942,15.627-29.518,32.749-35.788,4.63-1.688,9.26-3.376,13.794-5.257,9.6-4.051,19.63-3.569,29.469-2.17,11.72,1.688,23.248,4.63,34.968,6.463,7.958,1.254,16.061,1.447,24.067,2.46,9.887,1.254,19.727,2.7,29.518,4.486,7.669,1.4,14.855,1.013,21.752-2.99,8.633-5.064,17.846-5.836,27.588-3.762,3.569.772,7.524.1,11.238-.531,2.942-.482,5.74-1.833,8.537-2.99,10.032-4.244,20.354-7.524,31.3-8.248.579-.048,1.109-.193,1.688-.241,4.293-.241,7.958-.916,9.646-6.029,1.013-3.087,5.354-3.376,8.006-.772,1.833,1.785,2.846,4.437,4.341,6.608,1.4,2.026,2.556,4.534,4.437,5.884A54.607,54.607,0,0,1,480.4,253.147c1.833,2.846,2.508,6.608,2.99,10.08.531,3.473,1.158,6.511,3.376,9.55a41,41,0,0,1,5.691,11.672c.531,1.543-.579,4.244-1.833,5.643-2.6,2.942-5.45,5.4-6.849,9.5-1.688,4.871-10.707,5.161-15.338.868-2.074-1.881-3.859-4.1-6.125-5.691-1.109-.772-3.666-1.206-4.437-.531-5.354,4.678-12.106,4.437-18.376,5.547-7.91,1.4-13.5,5.595-15.723,12.878-6.174,20.45-11.865,41.045-17.363,61.688-2.219,8.392-1.929,16.833,2.99,24.646a13.645,13.645,0,0,0,11.334,6.7,60.443,60.443,0,0,1,8.3,1.254,10.407,10.407,0,0,1,7.379,6.27c.965,2.122.386,4.148-1.5,4.92-9.887,3.907-19.871,6.9-30.145,1.013-3.81-2.219-8.151-3.617-11.72-6.125a14.64,14.64,0,0,1-5.209-6.945c-3.473-10.611-6.463-21.415-9.646-32.122-.916-3.087-1.881-6.174-2.894-9.5-3.28,5.305-7.379,10.08-9.309,15.579-1.736,5.064-1.447,11-1.35,16.5,0,1.109,3.039,2.46,4.871,3.183,2.363.916,5.016,1.061,7.331,2.026s2.99,2.942,1.3,5.161c-1.158,1.543-2.122,4.1-3.521,4.341a71.684,71.684,0,0,1-12.878.917c-1.833,0-3.666-.82-5.547-1.206-3.762-.82-5.45-3.039-6.222-6.945a107.734,107.734,0,0,0-3.424-12.878c-1.158-3.376-1.4-6.511.386-9.694,5.064-8.875,4.2-18.569,3.666-28.215-.1-1.785-1.3-2.17-2.846-2.6a81.332,81.332,0,0,1-12.251-4.148c-5.595-2.7-11.383-3.907-17.267-2.46-12.637,3.087-24.887,1.543-37.09-2.267A84.861,84.861,0,0,0,269,339.24c-3.859-.627-6.463.772-8.3,4.244-1.013,1.881-1.736,3.907-2.749,5.74q-6.945,12.878-13.939,25.659c-1.254,2.267-2.6,4.437-3.714,6.752-3.858,7.91-3.424,11.817,2.46,18.28a29.773,29.773,0,0,0,14.759,8.826,23.765,23.765,0,0,1,8.489,4.389c4.051,3.231,3.521,5.064-1.013,7.62-6.8,3.81-14.035,3.569-21.366,2.508a5.429,5.429,0,0,1-2.749-1.158c-5.4-5.354-10.756-10.707-15.965-16.254-2.508-2.7-4.534-5.836-6.994-8.585a11.137,11.137,0,0,1-2.894-10.514c1.5-6.656,2.942-13.36,1.688-20.257Q216.505,365.406,216.143,363.886Z" transform="translate(-118.451 -223.937)" fill="#fff"/>
</svg>
